<?xml version="1.0" encoding="UTF-8" standalone="no"?>
<!-- Created with Inkscape (http://www.inkscape.org/) -->

<svg
   xmlns:dc="http://purl.org/dc/elements/1.1/"
   xmlns:cc="http://creativecommons.org/ns#"
   xmlns:rdf="http://www.w3.org/1999/02/22-rdf-syntax-ns#"
   xmlns:svg="http://www.w3.org/2000/svg"
   xmlns="http://www.w3.org/2000/svg"
   xmlns:sodipodi="http://sodipodi.sourceforge.net/DTD/sodipodi-0.dtd"
   xmlns:inkscape="http://www.inkscape.org/namespaces/inkscape"
   width="37.216442"
   height="45.247707"
   id="svg2"
   version="1.1"
   inkscape:version="0.48.4 r9939"
   sodipodi:docname="MarkerBreeding.svg">
  <defs
     id="defs4" />
  <sodipodi:namedview
     id="base"
     pagecolor="#ffffff"
     bordercolor="#666666"
     borderopacity="1.0"
     inkscape:pageopacity="0.0"
     inkscape:pageshadow="2"
     inkscape:zoom="36.955013"
     inkscape:cx="20.532499"
     inkscape:cy="34.237841"
     inkscape:document-units="px"
     inkscape:current-layer="layer1"
     showgrid="false"
     inkscape:window-width="1280"
     inkscape:window-height="750"
     inkscape:window-x="-8"
     inkscape:window-y="-8"
     inkscape:window-maximized="1"
     fit-margin-top="0"
     fit-margin-left="0"
     fit-margin-right="0"
     fit-margin-bottom="0" />
  <metadata
     id="metadata7">
    <rdf:RDF>
      <cc:Work
         rdf:about="">
        <dc:format>image/svg+xml</dc:format>
        <dc:type
           rdf:resource="http://purl.org/dc/dcmitype/StillImage" />
        <dc:title />
      </cc:Work>
    </rdf:RDF>
  </metadata>
  <g
     inkscape:label="Layer 1"
     inkscape:groupmode="layer"
     id="layer1"
     transform="translate(4.1767178e-7,-1007.1145)">
    <g
       style="font-size:40px;font-style:normal;font-variant:normal;font-weight:bold;font-stretch:normal;line-height:125%;letter-spacing:0px;word-spacing:0px;opacity:0.80000000000000004;fill:#800080;fill-opacity:1;stroke:#000000;stroke-opacity:1;font-family:Segoe UI;-inkscape-font-specification:Segoe UI Bold"
       id="text3764">
      <path
         d="m 29.178047,1018.5509 0,17.6563 3.359375,0 0,4.6093 -3.359375,0 0,5.7422 -5.625,0 0,-5.7422 -12.207031,0 0,-4.8242 c 1.080727,-1.2109 2.200518,-2.5358 3.359375,-3.9746 1.158849,-1.4388 2.278639,-2.9199 3.359375,-4.4434 1.080721,-1.5234 2.086579,-3.0566 3.017578,-4.5996 0.930978,-1.5429 1.721993,-3.0175 2.373047,-4.4238 z m -12.304687,17.6563 6.679687,0 0,-9.7852 c -0.455741,0.8464 -0.950533,1.7025 -1.484375,2.5684 -0.533865,0.8659 -1.09376,1.7187 -1.679687,2.5586 -0.585947,0.8398 -1.178394,1.6536 -1.777344,2.4414 -0.598966,0.7877 -1.178392,1.5267 -1.738281,2.2168 z"
         style="fill:#800080;fill-opacity:1;stroke:#000000;stroke-opacity:1"
         id="path3916"
         inkscape:connector-curvature="0" />
    </g>
    <path
       style="opacity:0.8;fill:#9f693f;fill-opacity:0.66666667;stroke:#000000;stroke-width:0.19533698px;stroke-linecap:round;stroke-linejoin:miter;stroke-opacity:1"
       d="m 16.817681,1015.0332 c 0,0 3.139345,-3.1394 7.743717,-1.9534 4.604371,1.1859 7.394901,0.9767 8.371585,0.9767 0.976685,0 3.139343,-1.1162 3.139343,-1.1162"
       id="path2985"
       inkscape:connector-curvature="0"
       sodipodi:nodetypes="cssc" />
    <path
       style="opacity:0.8;fill:#9f693f;fill-opacity:0.66666667;stroke:#000000;stroke-width:0.19533698px;stroke-linecap:round;stroke-linejoin:miter;stroke-opacity:1"
       d="m 18.352473,1014.2657 c 0,0 6.76703,-0.9068 8.232058,1.1163 1.465027,2.0231 7.883242,-3.2091 7.883242,-3.2091"
       id="path2987"
       inkscape:connector-curvature="0" />
    <path
       style="opacity:0.8;fill:#9f693f;fill-opacity:0.66666667;stroke:#000000;stroke-width:0.19533698px;stroke-linecap:round;stroke-linejoin:miter;stroke-opacity:1"
       d="m 34.886353,1016.2889 c 0,0 -3.069582,-5.0229 -6.906559,-3.3486 -3.836976,1.6743 -7.185609,3.4882 -7.185609,3.4882 l -2.999818,-2.093"
       id="path2989"
       inkscape:connector-curvature="0" />
    <path
       style="opacity:0.8;fill:#9f693f;fill-opacity:0.66666667;stroke:#000000;stroke-width:0.19533698px;stroke-linecap:round;stroke-linejoin:miter;stroke-opacity:1"
       d="m 20.096553,1014.8239 c 0,0 6.97632,5.7206 11.650454,3.4184 4.674135,-2.3022 5.371768,-2.3022 5.371768,-2.3022"
       id="path2991"
       inkscape:connector-curvature="0"
       sodipodi:nodetypes="csc" />
    <path
       style="opacity:0.8;fill:#9f693f;fill-opacity:0.66666667;stroke:#000000;stroke-width:0.19533698px;stroke-linecap:round;stroke-linejoin:miter;stroke-opacity:1"
       d="m 33.839904,1016.6377 c -0.348815,0.07 2.999819,0.5581 -6.487978,1.8139 -9.487796,1.2557 -8.580875,1.8138 -8.580875,1.8138"
       id="path2993"
       inkscape:connector-curvature="0" />
    <path
       style="opacity:0.8;fill:#9f693f;fill-opacity:0.66666667;stroke:#000000;stroke-width:0.19533698px;stroke-linecap:round;stroke-linejoin:miter;stroke-opacity:1"
       d="m 17.445551,1016.7773 c 0,0 3.418396,-0.6977 8.92969,-0.3488 5.511293,0.3488 8.859927,3.1393 8.859927,3.1393"
       id="path2995"
       inkscape:connector-curvature="0" />
    <path
       style="opacity:0.8;fill:#9f693f;fill-opacity:0.66666667;stroke:#000000;stroke-width:0.19533698px;stroke-linecap:round;stroke-linejoin:miter;stroke-opacity:1"
       d="m 31.467955,1016.4285 c 0,0 -1.185975,-0.3489 -7.883242,1.3254 -6.697268,1.6743 -6.697268,0 -6.697268,0"
       id="path2997"
       inkscape:connector-curvature="0" />
    <path
       style="opacity:0.8;fill:#9f693f;fill-opacity:0.66666667;stroke:#000000;stroke-width:0.19533698px;stroke-linecap:round;stroke-linejoin:miter;stroke-opacity:1"
       d="m 32.932983,1019.6376 c 0,0 -3.488162,2.1626 -8.790164,-0.5582"
       id="path2999"
       inkscape:connector-curvature="0" />
    <path
       style="opacity:0.8;fill:#ffe100;fill-opacity:1;stroke:#000000;stroke-width:0.19533698px;stroke-linecap:round;stroke-linejoin:miter;stroke-opacity:1"
       d="m 24.728842,1012.7472 c 0.06626,-1.0781 0.58277,-1.9322 0.303718,-2.6996 -0.279053,-0.7674 -0.518172,-2.6423 -1.071113,-2.8117 -0.305073,-0.094 -0.558106,0 -1.046448,2.0231 -0.488343,2.0232 0.373481,2.3395 0.164191,3.2465"
       id="path3001"
       inkscape:connector-curvature="0"
       sodipodi:nodetypes="csssc" />
    <path
       inkscape:connector-curvature="0"
       id="path3005"
       d="m 26.235714,1013.0101 c 0.279053,-1.7441 -0.436581,-1.7011 -0.279052,-2.5024 0.155727,-0.792 0.347577,-2.9016 1.046447,-3.0089 0.291349,-0.045 0.48411,0.4193 1.046448,2.0231 0.688625,1.964 -0.324151,2.2409 -0.114862,3.1478"
       style="opacity:0.8;fill:#ffe100;fill-opacity:1;stroke:#000000;stroke-width:0.19533698px;stroke-linecap:round;stroke-linejoin:miter;stroke-opacity:1"
       sodipodi:nodetypes="csssc" />
    <path
       sodipodi:type="star"
       style="opacity:0.8;fill:#000000;fill-opacity:1;fill-rule:nonzero;stroke:none"
       id="path2994"
       sodipodi:sides="3"
       sodipodi:cx="-13.660714"
       sodipodi:cy="24.017857"
       sodipodi:r1="4.2950048"
       sodipodi:r2="2.1475024"
       sodipodi:arg1="2.3561945"
       sodipodi:arg2="3.403392"
       inkscape:flatsided="false"
       inkscape:rounded="0"
       inkscape:randomized="0"
       d="m -16.697741,27.054884 0.962699,-3.592842 0.962699,-3.592842 2.630142,2.630143 2.6301429,2.630143 -3.5928419,0.962699 z"
       transform="matrix(1.1615315,0,0,1.1615315,19.394952,1020.9371)"
       inkscape:transform-center-x="-0.64559584"
       inkscape:transform-center-y="-0.6455801" />
  </g>
</svg>
