<?xml version="1.0" encoding="UTF-8" standalone="no"?>
<!-- Created with Inkscape (http://www.inkscape.org/) -->

<svg
   xmlns:dc="http://purl.org/dc/elements/1.1/"
   xmlns:cc="http://creativecommons.org/ns#"
   xmlns:rdf="http://www.w3.org/1999/02/22-rdf-syntax-ns#"
   xmlns:svg="http://www.w3.org/2000/svg"
   xmlns="http://www.w3.org/2000/svg"
   xmlns:sodipodi="http://sodipodi.sourceforge.net/DTD/sodipodi-0.dtd"
   xmlns:inkscape="http://www.inkscape.org/namespaces/inkscape"
   width="48.248508"
   height="37.899372"
   id="svg3018"
   version="1.1"
   inkscape:version="0.48.4 r9939"
   sodipodi:docname="MarkerHeard.svg">
  <defs
     id="defs3020" />
  <sodipodi:namedview
     id="base"
     pagecolor="#ffffff"
     bordercolor="#666666"
     borderopacity="1.0"
     inkscape:pageopacity="0.0"
     inkscape:pageshadow="2"
     inkscape:zoom="36.955013"
     inkscape:cx="20.604316"
     inkscape:cy="31.720297"
     inkscape:document-units="px"
     inkscape:current-layer="layer1"
     showgrid="false"
     inkscape:window-width="1280"
     inkscape:window-height="750"
     inkscape:window-x="-8"
     inkscape:window-y="-8"
     inkscape:window-maximized="1"
     fit-margin-top="0"
     fit-margin-left="0"
     fit-margin-right="0"
     fit-margin-bottom="0" />
  <metadata
     id="metadata3023">
    <rdf:RDF>
      <cc:Work
         rdf:about="">
        <dc:format>image/svg+xml</dc:format>
        <dc:type
           rdf:resource="http://purl.org/dc/dcmitype/StillImage" />
        <dc:title />
      </cc:Work>
    </rdf:RDF>
  </metadata>
  <g
     inkscape:label="Layer 1"
     inkscape:groupmode="layer"
     id="layer1"
     transform="translate(4.1767178e-7,-1014.4628)">
    <g
       id="g4368"
       transform="matrix(0.45207878,0,0,0.45207878,10.893404,590.8729)"
       style="opacity:0.8;stroke-width:1.44675922;stroke-linecap:round;stroke-miterlimit:4;stroke-dasharray:none">
      <path
         sodipodi:nodetypes="csssssssc"
         inkscape:connector-curvature="0"
         transform="translate(0,902.36218)"
         id="path4328"
         d="m 81.90625,45.09375 c -0.323741,0.39807 -0.596509,0.649364 -0.9375,1.15625 -0.758036,1.126828 -1.493973,2.515655 -2.0625,4.15625 -0.284263,0.820298 -0.52168,1.713716 -0.6875,2.65625 -0.16582,0.942534 -0.28125,1.939368 -0.28125,3 0,1.060632 0.11543,2.057467 0.28125,3 0.16582,0.942533 0.403237,1.835953 0.6875,2.65625 0.568527,1.640593 1.304464,3.029425 2.0625,4.15625 0.340991,0.506885 0.613759,0.758181 0.9375,1.15625"
         style="fill:none;stroke:#000000;stroke-width:1.44675922;stroke-linecap:round;stroke-linejoin:miter;stroke-miterlimit:4;stroke-opacity:1;stroke-dasharray:none" />
      <path
         inkscape:connector-curvature="0"
         id="path4333"
         d="m 77.03125,942.58093 c -8.91985,8.00053 -9.071777,23.73354 0,31.6875 m 4.875,-4.875 c -5.245206,-6.03122 -5.265784,-15.91364 0,-21.9375"
         style="fill:none;stroke:#000000;stroke-width:1.44675922;stroke-linecap:round;stroke-linejoin:miter;stroke-miterlimit:4;stroke-opacity:1;stroke-dasharray:none" />
      <path
         inkscape:connector-curvature="0"
         id="path4321"
         d="m 72.15625,937.70593 c -12.433491,10.04117 -12.6392,31.46036 -7e-6,41.43751"
         style="fill:none;stroke:#000000;stroke-width:1.44675922;stroke-linecap:round;stroke-linejoin:miter;stroke-miterlimit:4;stroke-opacity:1;stroke-dasharray:none"
         sodipodi:nodetypes="cc" />
    </g>
    <path
       style="opacity:0.8;fill:#ebb496;fill-opacity:1;stroke:#000000;stroke-width:0.4360328;stroke-linecap:round;stroke-linejoin:miter;stroke-miterlimit:4;stroke-opacity:1;stroke-dasharray:none"
       d="m 28.991092,1021.7835 c 0,0 1.790849,-5.3726 4.9443,-2.9977 3.153452,2.3748 2.141233,7.7474 1.440466,8.8374 -0.700767,1.0901 -2.693221,3.4996 -3.928979,3.4924 -1.756034,-0.01 -1.793952,-0.7282 -1.988609,-2.3244"
       id="path4373"
       inkscape:connector-curvature="0"
       sodipodi:nodetypes="csssc" />
    <path
       style="opacity:0.8;fill:#ebb496;fill-opacity:1;stroke:#000000;stroke-width:0.2180164;stroke-linecap:round;stroke-linejoin:miter;stroke-miterlimit:4;stroke-opacity:1;stroke-dasharray:none"
       d="m 33.080046,1028.8451 c 0,0 1.256266,-1.2331 1.786935,-2.4287 0.393228,-0.886 0.568552,-3.5792 -0.114027,-4.9443 -0.467178,-0.9344 -1.116801,-1.9855 -2.206883,-2.258 -1.090082,-0.2726 -1.975867,2.2045 -2.114514,2.8808 -0.122511,0.5977 0.622905,0.8565 1.206877,0.8565"
       id="path4375"
       inkscape:connector-curvature="0"
       sodipodi:nodetypes="cssssc" />
    <path
       style="opacity:0.8;fill:#ebb496;fill-opacity:1;stroke:#000000;stroke-width:0.2180164;stroke-linecap:round;stroke-linejoin:miter;stroke-miterlimit:4;stroke-opacity:1;stroke-dasharray:none"
       d="m 30.558371,1021.6951 c 0,0 4.137241,-0.2909 3.766337,2.58 -0.388992,3.0109 -1.4205,0.6906 -2.151015,1.9556 -1.387514,2.4026 -1.942048,1.1649 -1.589177,0.7276 0.975192,-1.2085 1.099098,-1.6276 -0.114027,-2.4885 -1.206877,-0.8565 1.401534,-0.9733 1.401534,-0.9733"
       id="path4377"
       inkscape:connector-curvature="0"
       sodipodi:nodetypes="cssssc" />
    <path
       style="opacity:0.8;fill:#ebb496;fill-opacity:1;stroke:#000000;stroke-width:0.2180164;stroke-linecap:round;stroke-linejoin:miter;stroke-miterlimit:4;stroke-opacity:1;stroke-dasharray:none"
       d="m 30.964467,1020.9694 c 0,0 1.748074,0.6056 1.472786,-0.2203 -0.275287,-0.8258 -0.935976,-0.9773 -0.935976,-0.9773"
       id="path4379"
       inkscape:connector-curvature="0"
       sodipodi:nodetypes="csc" />
    <g
       style="font-size:40px;font-style:normal;font-variant:normal;font-weight:bold;font-stretch:normal;line-height:125%;letter-spacing:0px;word-spacing:0px;opacity:0.80000000000000004;fill:#008000;fill-opacity:1;stroke:#000000;stroke-opacity:1;font-family:Segoe UI;-inkscape-font-specification:Sans Bold"
       id="text3888">
      <path
         d="m 17.975355,1040.9315 11.875,0 0,5.1172 -18.632812,0 0,-2.1094 c -2e-6,-1.4323 0.240883,-2.7181 0.722656,-3.8574 0.481768,-1.1393 1.087236,-2.1614 1.816406,-3.0664 0.729162,-0.9049 1.526687,-1.7057 2.392578,-2.4023 0.865878,-0.6966 1.689445,-1.3249 2.470703,-1.8848 0.820303,-0.5859 1.539703,-1.1458 2.158204,-1.6797 0.618477,-0.5338 1.13931,-1.0644 1.5625,-1.5918 0.423163,-0.5273 0.738918,-1.0612 0.947265,-1.6016 0.20832,-0.5403 0.312486,-1.1165 0.3125,-1.7285 -1.4e-5,-1.1979 -0.338555,-2.1028 -1.015625,-2.7148 -0.677095,-0.612 -1.712251,-0.918 -3.105469,-0.918 -2.408861,0 -4.713546,0.9571 -6.914062,2.8711 l 0,-5.4297 c 2.43489,-1.5755 5.182283,-2.3632 8.242187,-2.3633 1.419259,10e-5 2.692044,0.1856 3.81836,0.5567 1.126286,0.3711 2.080061,0.9017 2.861328,1.5918 0.781231,0.6901 1.376934,1.5267 1.787109,2.5097 0.410136,0.9831 0.615214,2.0801 0.615235,3.2911 -2.1e-5,1.289 -0.198588,2.4349 -0.595703,3.4375 -0.397155,1.0026 -0.924498,1.914 -1.582032,2.7343 -0.657569,0.8204 -1.416032,1.5723 -2.27539,2.2559 -0.85939,0.6836 -1.751317,1.3444 -2.675782,1.9824 -0.625012,0.4427 -1.227225,0.8822 -1.80664,1.3184 -0.579438,0.4362 -1.090505,0.8659 -1.533203,1.289 -0.442718,0.4232 -0.79428,0.8366 -1.054688,1.2403 -0.260425,0.4036 -0.390633,0.7877 -0.390625,1.1523 z"
         style="fill:#008000;fill-opacity:1;stroke:#000000;stroke-opacity:1"
         id="path3913"
         inkscape:connector-curvature="0" />
    </g>
    <path
       inkscape:transform-center-y="-0.6455801"
       inkscape:transform-center-x="-0.64559584"
       transform="matrix(1.1615315,0,0,1.1615315,19.394952,1020.9371)"
       d="m -16.697741,27.054884 0.962699,-3.592842 0.962699,-3.592842 2.630142,2.630143 2.6301429,2.630143 -3.5928419,0.962699 z"
       inkscape:randomized="0"
       inkscape:rounded="0"
       inkscape:flatsided="false"
       sodipodi:arg2="3.403392"
       sodipodi:arg1="2.3561945"
       sodipodi:r2="2.1475024"
       sodipodi:r1="4.2950048"
       sodipodi:cy="24.017857"
       sodipodi:cx="-13.660714"
       sodipodi:sides="3"
       id="path3892"
       style="opacity:0.8;fill:#000000;fill-opacity:1;fill-rule:nonzero;stroke:none"
       sodipodi:type="star" />
  </g>
</svg>
