<?xml version="1.0" encoding="UTF-8" standalone="no"?>
<!-- Created with Inkscape (http://www.inkscape.org/) -->

<svg
   xmlns:dc="http://purl.org/dc/elements/1.1/"
   xmlns:cc="http://creativecommons.org/ns#"
   xmlns:rdf="http://www.w3.org/1999/02/22-rdf-syntax-ns#"
   xmlns:svg="http://www.w3.org/2000/svg"
   xmlns="http://www.w3.org/2000/svg"
   xmlns:sodipodi="http://sodipodi.sourceforge.net/DTD/sodipodi-0.dtd"
   xmlns:inkscape="http://www.inkscape.org/namespaces/inkscape"
   width="41.2225"
   height="46.773045"
   id="svg2"
   version="1.1"
   inkscape:version="0.48.4 r9939"
   sodipodi:docname="MarkerFlyingOverhead.svg">
  <defs
     id="defs4" />
  <sodipodi:namedview
     id="base"
     pagecolor="#ffffff"
     bordercolor="#666666"
     borderopacity="1.0"
     inkscape:pageopacity="0.0"
     inkscape:pageshadow="2"
     inkscape:zoom="36.955013"
     inkscape:cx="18.939063"
     inkscape:cy="32.866684"
     inkscape:document-units="px"
     inkscape:current-layer="layer2"
     showgrid="false"
     fit-margin-top="0"
     fit-margin-left="0"
     fit-margin-right="0"
     fit-margin-bottom="0"
     inkscape:window-width="1280"
     inkscape:window-height="750"
     inkscape:window-x="-8"
     inkscape:window-y="-8"
     inkscape:window-maximized="1" />
  <metadata
     id="metadata7">
    <rdf:RDF>
      <cc:Work
         rdf:about="">
        <dc:format>image/svg+xml</dc:format>
        <dc:type
           rdf:resource="http://purl.org/dc/dcmitype/StillImage" />
        <dc:title />
      </cc:Work>
    </rdf:RDF>
  </metadata>
  <g
     inkscape:label="Layer 1"
     inkscape:groupmode="layer"
     id="layer1"
     transform="translate(-79.487758,-403.41218)" />
  <g
     inkscape:groupmode="layer"
     id="layer2"
     inkscape:label="Layer"
     transform="translate(-79.487758,-403.41218)">
    <g
       id="g4984"
       transform="translate(210.71429,11.071429)"
       style="opacity:0.80000000000000004;fill:#000080">
      <path
         sodipodi:nodetypes="cssssscsccsssssccsssc"
         inkscape:connector-curvature="0"
         id="path4925"
         d="m -107.16043,396.35578 c 0.53934,-0.37591 2.23908,-1.71609 2.51692,-2.01027 0.27784,-0.29418 1.7978,-0.60471 2.63133,-1.61803 0.83353,-1.0133 0.5597,0.88931 0.27784,1.11137 -0.53933,0.42495 -1.42189,1.89587 -1.94489,2.40252 -0.523,0.50666 -2.5823,2.51692 -2.74574,2.51692 -0.16343,0 -0.0163,1.47094 -0.0163,1.47094 0.21247,0.94793 0.26968,1.0133 -0.18795,1.17674 -0.45763,0.16344 -0.42493,0.008 -0.73546,-0.79267 -0.42172,-1.42483 -0.55061,-1.17534 -0.82536,-1.28298 -0.71912,-0.26149 -3.67527,-0.33276 -3.93964,-0.51937 -0.27504,-0.19414 -0.93802,-0.23954 -1.31112,-0.39867 -0.49313,-0.21033 -0.87216,-0.99218 -0.28378,-0.91046 0.58836,0.0817 1.43789,0.0665 2.22239,-0.3584 0.7845,-0.42494 2.90951,-0.0254 3.13832,-0.385 0.22881,-0.35956 -0.30013,-2.63232 -0.3982,-2.74672 -0.30687,-0.31596 -0.2237,-0.59558 -0.38646,-0.99697 -0.18065,-0.4511 -0.084,-0.45124 -0.0201,-0.4728 0.0524,-0.0177 0.14412,0.13707 0.29104,0.40594 0.14823,0.27127 0.30139,0.46454 0.34339,0.85351 0.0134,0.12351 0.68889,3.02292 1.37386,2.5544 z"
         style="fill:#000080;fill-opacity:1;stroke:#000000;stroke-width:0.18304894999999999;stroke-opacity:1" />
      <path
         sodipodi:nodetypes="cssssscsccsssssssssssc"
         inkscape:connector-curvature="0"
         id="path4925-7"
         d="m -95.378484,403.69735 c 0.41185,-0.0177 2.09329,-0.66555 2.37113,-0.95973 0.27784,-0.29418 2.04371,1.66999 2.80468,2.73886 0.281372,0.39521 -0.0676,1.55681 -0.18162,1.30924 -0.46941,-1.0192 -1.72517,-1.52633 -1.99392,-1.47039 -0.71289,0.14839 -2.18937,0.7603 -2.31814,0.9221 -0.10177,0.12788 -0.051,1.23979 -0.051,1.23979 0.32803,1.09817 0.70571,1.25132 -0.18795,1.43099 -0.72075,0.14491 -1.01433,0.15841 -0.98972,-1.1278 -0.28303,-0.67365 -0.29636,-0.77087 -0.5711,-0.8785 -0.18751,-0.11126 -1.73375,0.62644 -1.998119,0.83276 -0.26539,0.20713 -1.35077,2.21238 -1.715597,2.9181 -0.12963,0.25077 -0.91355,-0.007 -0.41091,-1.55763 1.106987,-3.41445 0.939377,-3.79391 1.401857,-3.92942 1.539419,-0.45106 2.025999,-0.52894 2.639149,-1.21852 0.23608,-0.26552 -0.21192,-1.83901 -0.2895,-1.96818 -0.24143,-0.402 -0.11363,-0.3124 -0.18765,-0.69072 -0.108,-0.55192 -0.12162,-0.54634 -0.0643,-0.58172 0.0755,-0.0466 0.17452,0.17558 0.31713,0.53079 0.0346,0.0863 0.21132,0.24173 0.18077,0.66762 -0.007,0.10282 0.47328,1.79236 1.2448,1.79236 z"
         style="fill:#000080;fill-opacity:1;stroke:#000000;stroke-width:0.18304894999999999;stroke-opacity:1" />
      <path
         inkscape:transform-center-y="-0.6455801"
         inkscape:transform-center-x="-0.64559584"
         transform="matrix(1.1615315,0,0,1.1615315,-111.83158,407.6887)"
         d="m -16.697741,27.054884 0.962699,-3.592842 0.962699,-3.592842 2.630142,2.630143 2.6301429,2.630143 -3.5928419,0.962699 z"
         inkscape:randomized="0"
         inkscape:rounded="0"
         inkscape:flatsided="false"
         sodipodi:arg2="3.403392"
         sodipodi:arg1="2.3561945"
         sodipodi:r2="2.1475024"
         sodipodi:r1="4.2950048"
         sodipodi:cy="24.017857"
         sodipodi:cx="-13.660714"
         sodipodi:sides="3"
         id="path3793"
         style="fill:#000080;fill-opacity:1;fill-rule:nonzero;stroke:none"
         sodipodi:type="star" />
      <g
         style="font-size:40px;font-style:normal;font-variant:normal;font-weight:bold;font-stretch:normal;line-height:125%;letter-spacing:0px;word-spacing:0px;fill:#000080;fill-opacity:1;stroke:#000000;stroke-opacity:1;font-family:Segoe UI;-inkscape-font-specification:Segoe UI Bold"
         id="text3813">
        <path
           d="m -120.48135,431.50357 0,-5.37109 c 1.875,1.36719 4.0625,2.05078 6.5625,2.05078 1.57551,0 2.80273,-0.33854 3.68164,-1.01563 0.8789,-0.67707 1.31835,-1.62108 1.31836,-2.83203 -10e-6,-1.24999 -0.54363,-2.21353 -1.63086,-2.89062 -1.08725,-0.67707 -2.58139,-1.01562 -4.48242,-1.01563 l -2.59765,0 0,-4.72656 2.40234,0 c 3.64582,2e-5 5.46874,-1.21092 5.46875,-3.63281 -1e-5,-2.27863 -1.39975,-3.41795 -4.19922,-3.41797 -1.87501,2e-5 -3.69792,0.60549 -5.46875,1.8164 l 0,-5.03906 c 1.96614,-0.98955 4.25781,-1.48434 6.875,-1.48437 2.86457,3e-5 5.09439,0.64456 6.68945,1.93359 1.59504,1.28909 2.39256,2.96226 2.39258,5.01953 -2e-5,3.65887 -1.85548,5.95054 -5.5664,6.875 l 0,0.0977 c 1.97915,0.24741 3.54165,0.96681 4.6875,2.1582 1.14581,1.19142 1.71873,2.65301 1.71875,4.38477 -2e-5,2.61719 -0.95705,4.6875 -2.8711,6.21093 -1.91408,1.52344 -4.5573,2.28516 -7.92968,2.28516 -2.89064,0 -5.24089,-0.46875 -7.05079,-1.40625 z"
           style="fill:#000080;fill-opacity:1;stroke:#000000;stroke-opacity:1"
           id="path3919"
           inkscape:connector-curvature="0" />
      </g>
    </g>
  </g>
</svg>
