<?xml version="1.0" encoding="UTF-8" standalone="no"?>
<!-- Created with Inkscape (http://www.inkscape.org/) -->

<svg
   xmlns:dc="http://purl.org/dc/elements/1.1/"
   xmlns:cc="http://creativecommons.org/ns#"
   xmlns:rdf="http://www.w3.org/1999/02/22-rdf-syntax-ns#"
   xmlns:svg="http://www.w3.org/2000/svg"
   xmlns="http://www.w3.org/2000/svg"
   xmlns:sodipodi="http://sodipodi.sourceforge.net/DTD/sodipodi-0.dtd"
   xmlns:inkscape="http://www.inkscape.org/namespaces/inkscape"
   width="42.832798"
   height="35.698811"
   id="svg2"
   version="1.1"
   inkscape:version="0.48.4 r9939"
   sodipodi:docname="MarkerSeen.svg">
  <defs
     id="defs4" />
  <sodipodi:namedview
     id="base"
     pagecolor="#ffffff"
     bordercolor="#666666"
     borderopacity="1.0"
     inkscape:pageopacity="0.0"
     inkscape:pageshadow="2"
     inkscape:zoom="36.955013"
     inkscape:cx="24.736979"
     inkscape:cy="24.922649"
     inkscape:document-units="px"
     inkscape:current-layer="layer2"
     showgrid="false"
     inkscape:window-width="1280"
     inkscape:window-height="750"
     inkscape:window-x="-8"
     inkscape:window-y="-8"
     inkscape:window-maximized="1"
     fit-margin-top="0"
     fit-margin-left="0"
     fit-margin-right="0"
     fit-margin-bottom="0" />
  <metadata
     id="metadata7">
    <rdf:RDF>
      <cc:Work
         rdf:about="">
        <dc:format>image/svg+xml</dc:format>
        <dc:type
           rdf:resource="http://purl.org/dc/dcmitype/StillImage" />
        <dc:title />
      </cc:Work>
    </rdf:RDF>
  </metadata>
  <g
     inkscape:label="Layer 1"
     inkscape:groupmode="layer"
     id="layer1"
     transform="translate(4.1767178e-7,-1016.6634)" />
  <g
     inkscape:groupmode="layer"
     id="layer2"
     inkscape:label="Layer"
     transform="translate(4.1767178e-7,-114.30119)">
    <path
       style="opacity:0.8;fill:#ffffff;fill-opacity:1;stroke:#000000;stroke-width:0.38974014;stroke-linecap:round;stroke-linejoin:miter;stroke-miterlimit:4;stroke-opacity:1;stroke-dasharray:none"
       d="m 34.944907,130.09899 c 2.042036,-0.58567 3.15509,-1.43493 5.32848,-2.77081 0.397741,-0.24447 0.243587,-0.24532 -1.461526,-1.49807 -0.457253,-0.33593 -1.106551,-0.69618 -1.857356,-1.02915 0.05925,0.17451 0.126883,0.34636 0.164422,0.5298 0.05956,0.29109 0.09134,0.59258 0.09134,0.90127 0,0.30871 -0.03178,0.61019 -0.09134,0.90127 -0.05956,0.2911 -0.148721,0.5729 -0.261857,0.84039 -0.113137,0.26748 -0.253385,0.52333 -0.414099,0.76121 -0.160716,0.23789 -0.339684,0.45538 -0.541983,0.65769 -0.2023,0.2023 -0.425888,0.38736 -0.663776,0.54807 -0.09126,0.0617 -0.196418,0.10344 -0.292305,0.15833 z"
       id="path3868"
       inkscape:connector-curvature="0" />
    <path
       style="opacity:0.8;fill:#ffffff;fill-opacity:1;stroke:#000000;stroke-width:0.38974014;stroke-linecap:round;stroke-linejoin:miter;stroke-miterlimit:4;stroke-opacity:1;stroke-dasharray:none"
       d="m 28.836948,124.08846 c -2.100468,0.68085 -2.613232,1.36694 -3.702531,2.78908 -1.618429,2.11296 -2.130911,1.75095 -2.435877,2.33235 -0.304966,0.58141 1.537297,0.79929 2.746451,0.8343 1.084191,0.0313 4.405446,0.63372 6.424622,0.56633 -0.0097,-0.002 -0.02071,0.002 -0.03044,0 -0.291088,-0.0596 -0.572891,-0.14262 -0.840377,-0.25576 -0.267485,-0.11315 -0.523322,-0.25339 -0.761211,-0.4141 -0.237889,-0.16071 -0.461477,-0.34577 -0.663777,-0.54807 -0.202298,-0.20231 -0.381267,-0.4198 -0.541982,-0.65769 -0.160714,-0.23788 -0.300962,-0.49373 -0.414098,-0.76121 -0.113137,-0.26749 -0.202292,-0.54929 -0.261857,-0.84039 -0.05956,-0.29108 -0.09134,-0.59256 -0.09134,-0.90127 0,-0.30869 0.03178,-0.61018 0.09134,-0.90127 0.05956,-0.29108 0.14872,-0.57289 0.261857,-0.84038 0.05977,-0.14131 0.145781,-0.26846 0.219229,-0.40192 z"
       id="path3866"
       inkscape:connector-curvature="0"
       sodipodi:nodetypes="csssccsssssssssc" />
    <path
       style="opacity:0.80000000000000004;fill:#784421;fill-opacity:1;stroke:#000000;stroke-width:0.38974014000000001;stroke-linecap:round;stroke-linejoin:miter;stroke-miterlimit:4;stroke-opacity:1;stroke-dasharray:none"
       d="m 28.836948,124.08846 c -0.07344,0.13346 -0.159457,0.26061 -0.219229,0.40192 -0.113137,0.26749 -0.202292,0.5493 -0.261857,0.84038 -0.05956,0.29109 -0.09134,0.59258 -0.09134,0.90127 0,0.30871 0.03178,0.61019 0.09134,0.90127 0.05956,0.2911 0.14872,0.5729 0.261857,0.84039 0.113136,0.26748 0.253385,0.52333 0.414098,0.76121 0.160715,0.23789 0.339684,0.45538 0.541984,0.65769 0.202298,0.2023 0.425886,0.38736 0.663776,0.54807 0.237888,0.16071 0.493725,0.30097 0.761211,0.4141 0.267486,0.11315 0.549288,0.1962 0.840377,0.25576 0.0097,0.002 0.02069,-0.002 0.03044,0 0.232728,-0.007 0.521888,0.0166 0.712493,-0.0123 0.937403,-0.1415 1.695751,-0.30805 2.3628,-0.49936 0.09589,-0.0549 0.201044,-0.0967 0.292304,-0.15832 0.23789,-0.16072 0.461478,-0.34578 0.663777,-0.54808 0.2023,-0.20229 0.381268,-0.4198 0.541984,-0.65768 0.160713,-0.2379 0.300961,-0.49374 0.414099,-0.76122 0.113137,-0.26749 0.20229,-0.54928 0.261856,-0.84037 0.05956,-0.2911 0.09134,-0.59258 0.09134,-0.90128 0,-0.3087 -0.03178,-0.61018 -0.09134,-0.90127 -0.03753,-0.18345 -0.105163,-0.35529 -0.164421,-0.5298 -2.048975,-0.90871 -4.914332,-1.60881 -7.155386,-1.02307 -0.399511,0.10442 -0.647022,0.20842 -0.962172,0.31057 z"
       id="path3082"
       inkscape:connector-curvature="0" />
    <path
       style="opacity:0.8;fill:#000000;fill-opacity:1;stroke:#000000;stroke-width:0.19487005;stroke-linecap:round;stroke-miterlimit:4;stroke-opacity:1"
       d="m 34.178403,126.23203 c 0,0.79562 -0.644966,1.44058 -1.440574,1.44058 -0.795608,0 -1.440575,-0.64496 -1.440575,-1.44058 0,-0.79559 0.644967,-1.44057 1.440575,-1.44057 0.795608,0 1.440574,0.64498 1.440574,1.44057 z"
       id="path3854"
       inkscape:connector-curvature="0" />
    <path
       style="opacity:0.8;fill:none;stroke:#000000;stroke-width:0.19487007px;stroke-linecap:round;stroke-linejoin:miter;stroke-opacity:1"
       d="m 24.925628,127.71097 c 0,0 0.173991,1.39193 0.556771,1.8791"
       id="path3860"
       inkscape:connector-curvature="0" />
    <path
       style="opacity:0.8;fill:none;stroke:#000000;stroke-width:0.38974014;stroke-linecap:round;stroke-linejoin:miter;stroke-miterlimit:4;stroke-opacity:1;stroke-dasharray:none"
       d="m 23.324909,127.01499 c 0,0 1.983499,-2.81865 3.584217,-3.41022 1.600719,-0.59157 5.505202,-1.47077 8.664758,-0.41758 3.027447,1.00915 5.438863,3.42473 7.064042,3.75821"
       id="path3862"
       inkscape:connector-curvature="0"
       sodipodi:nodetypes="cssc" />
    <path
       inkscape:transform-center-y="-0.6455801"
       inkscape:transform-center-x="-0.64559584"
       transform="matrix(1.1615315,0,0,1.1615315,19.394952,118.5749)"
       d="m -16.697741,27.054884 0.962699,-3.592842 0.962699,-3.592842 2.630142,2.630143 2.6301429,2.630143 -3.5928419,0.962699 z"
       inkscape:randomized="0"
       inkscape:rounded="0"
       inkscape:flatsided="false"
       sodipodi:arg2="3.403392"
       sodipodi:arg1="2.3561945"
       sodipodi:r2="2.1475024"
       sodipodi:r1="4.2950048"
       sodipodi:cy="24.017857"
       sodipodi:cx="-13.660714"
       sodipodi:sides="3"
       id="path3831"
       style="opacity:0.8;fill:#000000;fill-opacity:1;fill-rule:nonzero;stroke:none"
       sodipodi:type="star" />
    <g
       style="font-size:40px;font-style:normal;font-variant:normal;font-weight:bold;font-stretch:normal;line-height:125%;letter-spacing:0px;word-spacing:0px;opacity:0.80000000000000004;fill:#008000;fill-opacity:1;stroke:#000000;stroke-opacity:1;font-family:Segoe UI;-inkscape-font-specification:Segoe UI Bold"
       id="text3869"
       transform="translate(-4.2931483,0)">
      <path
         d="m 23.321067,114.80119 0,28.63282 -6.152343,0 0,-21.67969 c -0.338552,0.2995 -0.738942,0.5827 -1.201172,0.84961 -0.462248,0.26695 -0.953784,0.50783 -1.47461,0.72265 -0.52084,0.21487 -1.061204,0.39716 -1.621093,0.54688 -0.559901,0.14976 -1.113286,0.25718 -1.660157,0.32226 l 0,-5.19531 c 1.601557,-0.46872 3.111972,-1.06768 4.53125,-1.79687 1.419261,-0.72914 2.701812,-1.52992 3.847657,-2.40235 z"
         style="fill:#008000;fill-opacity:1;stroke:#000000;stroke-opacity:1"
         id="path3922"
         inkscape:connector-curvature="0" />
    </g>
  </g>
</svg>
